<?xml version="1.0" encoding="UTF-8"?>
<svg width="256px" height="256px" viewBox="0 0 256 256" version="1.1" xmlns="http://www.w3.org/2000/svg" xmlns:xlink="http://www.w3.org/1999/xlink">
    <style>
    #Q { fill: #000; }
    @media (prefers-color-scheme: dark) {
      #Q { fill: #ccc; }
    }
    </style>
    <g id="favicon" stroke="none" stroke-width="1" fill="none" fill-rule="evenodd">
        <path d="M228,129.567997 C228,101.425056 218.111479,77.3125785 198.374903,57.2740815 C186.74371,45.2195163 173.61297,36.7803163 158.982684,32 C158.293774,42.8494435 157.361738,56.0689597 156.105317,67.7084275 C162.83288,70.9923843 169.073864,75.6086702 174.788132,81.4702486 C187.797471,94.8571429 194.322048,110.861829 194.322048,129.567997 C194.322048,148.274165 187.797471,164.406059 174.788132,178.000502 C161.738651,191.1765 146.09507,197.744414 127.858041,197.744414 C109.621011,197.744414 93.896497,191.1765 80.6848244,178.000502 C74.6869652,171.640137 70.0669264,164.737468 66.9059675,157.295841 C57.2201053,149.107708 44.6973429,138.214746 36.7946193,130.190644 C33.4711415,126.826345 30.6750341,123.666248 28.3648515,120.58984 C28.121726,123.539041 28,126.535108 28,129.567997 C28,157.921834 37.8075881,182.030965 57.3819715,201.902084 C76.7540222,221.940581 100.259208,232 127.858041,232 C148.972763,232 168.263555,225.683153 185.689948,213.086283 L204.129637,232 L228,207.807181 L209.317186,188.890116 C221.758689,171.181521 228,151.394092 228,129.567997" id="Q" fill="#777"></path>
        <path d="M130,16.9436443 C129.397811,28.1893343 127.995522,50.9790233 125.774527,65.3907296 C122.988557,83.5425565 121.097131,89.3089275 110.27408,100.000213 C101.878955,108.28814 86.7173798,120.752394 79,127 C71.2826202,120.752394 56.1210448,108.276883 47.7262023,100.000213 C36.9031509,89.3089275 35.0114428,83.5425565 32.2257546,65.3907296 C30.0044776,50.9705806 28.6021891,28.1780773 28,16.9436443 C37.9287894,14.5571716 49.5519403,12.4718222 59.2456053,10.9014781 C68.9488557,9.33394821 76.7319237,8.29830909 79,8 C83.5268491,8.59098971 110.142139,12.1706988 130,16.9436443" id="shield" fill="#00DA55"></path>
    </g>
</svg>
