<svg fill="#000000" height="24" viewBox="0 0 24 24" width="24" xmlns="http://www.w3.org/2000/svg"><g><path d="M0,0h24v24H0V0z" fill="none"/><path d="M12,5.8L15.2,9l1.4-1.4L12,3L7.4,7.6L8.8,9L12,5.8z M12,18.2L8.8,15l-1.4,1.4L12,21l4.6-4.6L15.2,15L12,18.2z"/><rect x="8.9" y="11.3" style="display:none;" width="6.1" height="1.4"/>
</g><g><g><rect x="9" y="11.3" width="6" height="1.5"/><rect x="9" y="11.3" transform="matrix(0.5 -0.866 0.866 0.5 -4.4181 16.4014)" width="6" height="1.5"/><rect x="9" y="11.3" transform="matrix(0.5 0.866 -0.866 0.5 16.4131 -4.3745)" width="6" height="1.5"/></g></g></svg>
